<svg width="50" height="33" viewBox="0 0 50 33" fill="none" xmlns="http://www.w3.org/2000/svg">
<path d="M41.4243 19.7581L37.0589 18.0279C37.0589 18.0279 36.6926 18.0279 36.6926 18.2665L36.5705 20.7128C36.5705 20.9514 36.2042 21.0707 36.0821 20.8321L32.2052 12.0017C32.2052 12.0017 31.961 11.7631 31.8389 11.8824L26.5883 17.0434C26.3441 17.282 26.0998 17.0434 26.2219 16.8047L29.0915 11.1664C29.2136 10.9278 29.4578 11.0471 29.5799 11.1664C29.702 11.4051 29.9462 11.4051 30.0683 11.1664L32.5715 5.02099C32.6936 4.78234 32.9378 4.78234 33.0599 5.02099L36.4179 13.732C36.54 13.9707 36.9063 13.9707 36.9063 13.6127L36.7842 11.5244C36.7842 11.2858 37.1505 11.1664 37.2726 11.4051L41.8822 19.5195C41.8822 19.5195 41.638 19.7581 41.3938 19.7581H41.4243ZM20.4524 20.2354L15.965 15.9396C15.965 15.9396 15.7207 15.8203 15.5986 16.0589L12.3628 23.5468C12.2407 23.7855 11.9965 23.6661 11.9965 23.4275L11.8744 21.4586C11.8744 21.4586 11.7523 21.2199 11.6302 21.2199L7.99747 22.6817C7.75326 22.801 7.63115 22.5623 7.75326 22.443L11.6302 15.7009C11.7523 15.4623 11.9965 15.5816 11.9965 15.8203L11.8744 17.5505C11.8744 17.7892 12.2407 17.9085 12.2407 17.6699L14.9881 10.4206C15.1102 10.182 15.3544 10.182 15.3544 10.4206L17.4913 15.5816C17.6134 15.8203 17.8576 15.7009 17.8576 15.5816C17.8576 15.343 18.1018 15.343 18.2239 15.5816L20.605 20.3548C20.9713 20.2354 20.605 20.4741 20.4829 20.2354H20.4524ZM49.056 31.0347L33.3042 1.08314C32.9378 0.456662 32.0526 0.456662 31.6862 1.08314L22.9556 17.7594C22.5893 18.3858 21.704 18.3858 21.3377 17.7594L15.965 8.30254C15.5986 7.67606 14.7134 7.67606 14.347 8.30254L1.09843 31.0049C0.732105 31.6314 1.22053 32.3473 1.8616 32.3473H19.8419C20.2082 32.3473 20.605 32.1087 20.7271 31.7209L22.3451 27.6637C22.5893 27.0372 23.4745 27.0372 23.8409 27.6637L25.5809 31.7209C25.703 32.0788 26.0693 32.1982 26.4662 32.1982H48.3233C48.9339 32.3175 49.4528 31.5717 49.0865 30.975" fill="#EFBA06"/>
</svg>
