<svg width="17" height="12" viewBox="0 0 17 12" fill="none" xmlns="http://www.w3.org/2000/svg">
<path d="M15.8806 1.61846L14.5384 0.276294C14.3543 0.0921212 14.1305 0 13.8674 0C13.6041 0 13.3802 0.0921212 13.1962 0.276294L6.72178 6.76028L3.82017 3.84887C3.63592 3.66463 3.41223 3.57261 3.14913 3.57261C2.88586 3.57261 2.66217 3.66463 2.47792 3.84887L1.13571 5.19107C0.951464 5.37528 0.859375 5.59903 0.859375 5.86226C0.859375 6.12528 0.951464 6.34924 1.13571 6.53342L4.70836 10.1059L6.05068 11.4481C6.23482 11.6324 6.45858 11.7244 6.72178 11.7244C6.98488 11.7244 7.20864 11.6321 7.39289 11.4481L8.73517 10.1059L15.8806 2.96074C16.0646 2.7765 16.1569 2.55278 16.1569 2.28955C16.157 2.02646 16.0646 1.80271 15.8806 1.61846Z" fill="#3EAE64"/>
</svg>
