<svg width="56" height="30" viewBox="0 0 56 30" fill="none" xmlns="http://www.w3.org/2000/svg">
<path d="M41.3951 3.55936C37.478 1.52919 33.1226 0.46875 28.7014 0.46875C24.2803 0.46875 19.9249 1.52919 16.0078 3.55936L20.867 11.893C22.3516 11.1499 23.9369 10.6233 25.5737 10.3296C25.987 8.43906 26.4109 6.56578 26.8184 4.81204C26.9156 4.3895 27.1549 4.01221 27.497 3.74195C27.8391 3.4717 28.2638 3.32452 28.7014 3.32452C29.1391 3.32452 29.5637 3.4717 29.9058 3.74195C30.2479 4.01221 30.4872 4.3895 30.5845 4.81204C30.992 6.56578 31.4159 8.43906 31.8292 10.3296C33.466 10.6233 35.0513 11.1499 36.5358 11.893L41.3951 3.55936Z" fill="#EFBA06"/>
<path d="M45.5502 25.8299L55.357 25.8545C55.2177 21.5123 53.9722 17.2706 51.7313 13.5061C49.4904 9.74156 46.3233 6.5708 42.5114 4.27539L37.5859 12.5294C39.8949 13.9903 41.8181 15.9544 43.2011 18.2641C44.5842 20.5739 45.3887 23.165 45.5502 25.8299Z" fill="#EFBA06"/>
<path d="M24.8945 25.7586C24.8945 26.794 25.2957 27.787 26.0099 28.5192C26.724 29.2513 27.6926 29.6626 28.7026 29.6626C29.7126 29.6626 30.6812 29.2513 31.3953 28.5192C32.1095 27.787 32.5107 26.794 32.5107 25.7586C32.5107 22.8159 31.1941 15.3874 28.7026 4.27539C26.2112 15.3874 24.8945 22.8159 24.8945 25.7586ZM29.6546 25.7586V26.7346C29.6546 26.9934 29.5543 27.2417 29.3758 27.4247C29.1973 27.6078 28.9551 27.7106 28.7026 27.7106C28.4501 27.7106 28.208 27.6078 28.0294 27.4247C27.8509 27.2417 27.7506 26.9934 27.7506 26.7346V25.7586C27.7506 25.4997 27.8509 25.2514 28.0294 25.0684C28.208 24.8854 28.4501 24.7825 28.7026 24.7825C28.9551 24.7825 29.1973 24.8854 29.3758 25.0684C29.5543 25.2514 29.6546 25.4997 29.6546 25.7586Z" fill="#EFBA06"/>
<path d="M18.5445 12.524L13.622 4.27539C9.81066 6.57177 6.64389 9.7427 4.40259 13.507C2.16129 17.2712 0.914719 21.5125 0.773438 25.8545L10.5841 25.8394C10.7434 23.1725 11.5464 20.5788 12.9289 18.2664C14.3113 15.954 16.2346 13.9873 18.5445 12.524Z" fill="#EFBA06"/>
</svg>
