<svg width="45" height="45" viewBox="0 0 45 45" fill="none" xmlns="http://www.w3.org/2000/svg">
<path d="M21.2919 9.38477C20.754 9.38479 20.2381 9.5985 19.8577 9.97888C19.4774 10.3593 19.2637 10.8752 19.2637 11.4131V23.5827C19.2637 24.1206 19.4774 24.6364 19.8578 25.0168C20.2381 25.3972 20.754 25.6109 21.2919 25.6109H30.4191C30.6866 25.6127 30.9518 25.5616 31.1995 25.4605C31.4472 25.3594 31.6725 25.2103 31.8623 25.0217C32.0521 24.8332 32.2028 24.609 32.3056 24.362C32.4084 24.115 32.4613 23.8501 32.4613 23.5826C32.4613 23.3151 32.4084 23.0502 32.3056 22.8032C32.2028 22.5562 32.0521 22.332 31.8623 22.1435C31.6725 21.9549 31.4472 21.8058 31.1995 21.7047C30.9518 21.6036 30.6866 21.5525 30.4191 21.5543H23.3202V11.4131C23.3202 10.8752 23.1065 10.3593 22.7261 9.97888C22.3457 9.5985 21.8298 9.38479 21.2919 9.38477Z" fill="#EFBA06"/>
<path d="M38.0805 6.79013C29.3812 -1.90921 15.2268 -1.90921 6.52751 6.79013C6.14872 7.17078 5.93636 7.68614 5.93703 8.22315C5.93769 8.76016 6.15131 9.27499 6.53105 9.65471C6.91078 10.0344 7.42561 10.248 7.96263 10.2487C8.49964 10.2493 9.01498 10.037 9.39563 9.65815C16.5124 2.54048 28.0937 2.54048 35.2124 9.65815C42.3291 16.7754 42.3291 28.3567 35.2124 35.474C28.9352 41.7498 19.1285 42.4692 12.0004 37.6069L13.8107 37.0034C14.3211 36.8332 14.7429 36.4673 14.9834 35.986C15.2239 35.5048 15.2634 34.9478 15.0932 34.4374C14.923 33.9271 14.557 33.5052 14.0758 33.2647C13.5946 33.0242 13.0375 32.9847 12.5272 33.1549L7.26957 34.9078C6.8071 35.0621 6.41567 35.3778 6.16688 35.7971C5.9181 36.2164 5.82859 36.7113 5.91475 37.1911L6.99699 43.2076C7.08127 43.6755 7.3271 44.0989 7.69161 44.4041C8.05612 44.7092 8.51618 44.8767 8.99156 44.8774C9.11272 44.8772 9.23362 44.8663 9.35284 44.8447C9.88225 44.7495 10.3522 44.4479 10.6592 44.0062C10.9662 43.5646 11.0853 43.0191 10.9901 42.4896L10.8443 41.6788C15.1083 44.2321 20.1021 45.2902 25.0353 44.6858C29.9684 44.0813 34.559 41.8489 38.0805 38.3417C46.7788 29.6432 46.7788 15.4889 38.0805 6.79013Z" fill="#EFBA06"/>
<path d="M4.936 11.8908C4.69656 11.774 4.43645 11.7055 4.17053 11.6893C3.90461 11.6731 3.63811 11.7095 3.38626 11.7964C3.13441 11.8832 2.90216 12.0189 2.7028 12.1956C2.50343 12.3723 2.34085 12.5866 2.22437 12.8262C2.06002 13.1628 1.90552 13.5025 1.76088 13.8452C1.65527 14.0907 1.59918 14.3545 1.59586 14.6217C1.59254 14.8888 1.64204 15.154 1.74152 15.402C1.841 15.65 1.98849 15.8759 2.17554 16.0666C2.36258 16.2574 2.58548 16.4094 2.83143 16.5138C3.07738 16.6182 3.34153 16.6729 3.6087 16.6749C3.87588 16.6769 4.14081 16.626 4.38828 16.5253C4.63575 16.4246 4.86088 16.276 5.05073 16.088C5.24058 15.9 5.39141 15.6763 5.49456 15.4298C5.6134 15.1516 5.73814 14.8753 5.87087 14.6019C5.98752 14.3625 6.05588 14.1025 6.07203 13.8367C6.08819 13.5709 6.05182 13.3045 5.965 13.0527C5.87819 12.801 5.74263 12.5688 5.56608 12.3694C5.38952 12.17 5.17542 12.0074 4.936 11.8908Z" fill="#EFBA06"/>
<path d="M2.02899 24.097C2.5577 24.0969 3.06545 23.8902 3.44397 23.5211C3.8225 23.152 4.04184 22.6496 4.05523 22.1211C4.06511 21.7383 4.08657 21.3553 4.11959 20.9723C4.14255 20.7069 4.11303 20.4397 4.03271 20.1858C3.95239 19.9319 3.82285 19.6963 3.65148 19.4925C3.48011 19.2886 3.27027 19.1205 3.03394 18.9978C2.79761 18.875 2.53941 18.8 2.2741 18.7771C2.00878 18.7541 1.74154 18.7836 1.48764 18.864C1.23373 18.9443 0.998134 19.0738 0.794292 19.2452C0.590451 19.4166 0.42236 19.6264 0.299615 19.8627C0.176871 20.0991 0.101878 20.3573 0.0789171 20.6226C0.0383519 21.0867 0.0122698 21.5515 0.000670657 22.017C-0.0131503 22.5547 0.187121 23.0758 0.557447 23.4658C0.927773 23.8558 1.43783 24.0828 1.97547 24.0968C1.99334 24.097 2.01112 24.097 2.02899 24.097Z" fill="#EFBA06"/>
<path d="M4.80288 27.7773C4.72785 27.5207 4.60281 27.2814 4.43497 27.0733C4.26713 26.8652 4.0598 26.6923 3.8249 26.5646C3.59001 26.4369 3.33218 26.3569 3.06625 26.3293C2.80033 26.3016 2.53155 26.3267 2.27539 26.4033C2.01923 26.4799 1.78073 26.6064 1.57363 26.7754C1.36652 26.9445 1.19489 27.1529 1.06861 27.3886C0.942328 27.6242 0.863888 27.8825 0.837802 28.1486C0.811716 28.4147 0.838498 28.6833 0.916608 28.939C1.02262 29.2945 1.13747 29.6491 1.26135 30.0001C1.34972 30.2514 1.48672 30.4828 1.66452 30.6811C1.84232 30.8795 2.05744 31.0408 2.2976 31.156C2.53777 31.2712 2.79826 31.3379 3.06422 31.3525C3.33018 31.367 3.5964 31.329 3.84767 31.2406C4.09893 31.1522 4.33034 31.0152 4.52866 30.8374C4.72698 30.6596 4.88834 30.4445 5.00353 30.2043C5.11871 29.9642 5.18547 29.7037 5.19998 29.4377C5.21449 29.1717 5.17648 28.9055 5.08811 28.6543C4.98606 28.3638 4.89098 28.0715 4.80288 27.7773Z" fill="#EFBA06"/>
</svg>
