<svg width="40" height="34" viewBox="0 0 40 34" fill="none" xmlns="http://www.w3.org/2000/svg">
<path d="M33.7072 17.916H30.6934C31.0006 18.7571 31.1684 19.6647 31.1684 20.6108V32.0012C31.1684 32.3956 31.0997 32.7742 30.9748 33.1263H35.9573C37.8185 33.1263 39.3327 31.6121 39.3327 29.751V23.5415C39.3328 20.4397 36.8091 17.916 33.7072 17.916Z" fill="#EFBA06"/>
<path d="M8.51984 20.6108C8.51984 19.6647 8.68767 18.7571 8.99486 17.916H5.98105C2.8791 17.916 0.355469 20.4396 0.355469 23.5416V29.7511C0.355469 31.6122 1.8696 33.1264 3.73082 33.1264H8.71339C8.58849 32.7742 8.51984 32.3956 8.51984 32.0012V20.6108Z" fill="#EFBA06"/>
<path d="M23.289 14.9883H16.399C13.2971 14.9883 10.7734 17.5119 10.7734 20.6139V32.0043C10.7734 32.6256 11.2772 33.1294 11.8986 33.1294H27.7895C28.4109 33.1294 28.9146 32.6257 28.9146 32.0043V20.6139C28.9146 17.5119 26.391 14.9883 23.289 14.9883Z" fill="#EFBA06"/>
<path d="M19.8495 0.0742188C16.119 0.0742188 13.084 3.10919 13.084 6.83976C13.084 9.37017 14.4806 11.5801 16.5431 12.7404C17.5214 13.2907 18.6493 13.6052 19.8495 13.6052C21.0496 13.6052 22.1775 13.2907 23.1558 12.7404C25.2184 11.5801 26.6149 9.3701 26.6149 6.83976C26.6149 3.10926 23.58 0.0742188 19.8495 0.0742188Z" fill="#EFBA06"/>
<path d="M7.96983 6.37695C5.17988 6.37695 2.91016 8.64667 2.91016 11.4366C2.91016 14.2266 5.17988 16.4963 7.96983 16.4963C8.67754 16.4963 9.35146 16.3497 9.96364 16.0862C11.0221 15.6305 11.8948 14.8239 12.4348 13.8134C12.8139 13.1043 13.0295 12.2953 13.0295 11.4366C13.0295 8.64675 10.7598 6.37695 7.96983 6.37695Z" fill="#EFBA06"/>
<path d="M31.7237 6.375C28.9338 6.375 26.6641 8.64472 26.6641 11.4347C26.6641 12.2934 26.8797 13.1024 27.2587 13.8115C27.7988 14.822 28.6715 15.6286 29.7299 16.0843C30.3421 16.3478 31.016 16.4944 31.7237 16.4944C34.5137 16.4944 36.7834 14.2246 36.7834 11.4347C36.7834 8.64472 34.5137 6.375 31.7237 6.375Z" fill="#EFBA06"/>
</svg>
