<svg width="39" height="33" viewBox="0 0 39 33" fill="none" xmlns="http://www.w3.org/2000/svg">
<path d="M33.871 9.92188H18.6392C17.5175 9.92322 16.4421 10.3694 15.6489 11.1626C14.8557 11.9558 14.4095 13.0312 14.4082 14.1529V24.3074C14.4095 25.4291 14.8557 26.5045 15.6489 27.2977C16.4421 28.0909 17.5175 28.5371 18.6392 28.5384H27.1741L30.8576 32.2228C31.0351 32.4005 31.2614 32.5214 31.5077 32.5705C31.754 32.6195 32.0093 32.5944 32.2413 32.4982C32.4733 32.4021 32.6716 32.2393 32.811 32.0305C32.9505 31.8216 33.0249 31.5761 33.0248 31.325V28.5384H33.871C34.9927 28.5371 36.0681 28.0909 36.8613 27.2977C37.6545 26.5045 38.1007 25.4291 38.102 24.3074V14.1529C38.1007 13.0312 37.6545 11.9558 36.8613 11.1626C36.0681 10.3694 34.9927 9.92322 33.871 9.92188ZM30.4861 17.9608H30.0131C29.8175 19.7081 29.0217 21.3333 27.7614 22.5591C28.4885 22.8721 29.2714 23.035 30.063 23.0381C30.2907 23.0369 30.5098 23.1247 30.6736 23.2828C30.8374 23.4409 30.9329 23.6568 30.9397 23.8843C30.9431 23.9939 30.9245 24.103 30.8851 24.2052C30.8456 24.3075 30.786 24.4008 30.7099 24.4797C30.6338 24.5585 30.5427 24.6214 30.4419 24.6645C30.3411 24.7075 30.2327 24.73 30.1231 24.7305C28.7704 24.7268 27.4424 24.3679 26.272 23.6897C25.1124 24.3707 23.792 24.73 22.4472 24.7305C22.2195 24.7317 22.0004 24.6439 21.8366 24.4858C21.6729 24.3277 21.5773 24.1118 21.5705 23.8843C21.5671 23.7747 21.5857 23.6656 21.6252 23.5634C21.6646 23.4611 21.7242 23.3678 21.8003 23.2889C21.8764 23.2101 21.9675 23.1472 22.0683 23.1041C22.1691 23.0611 22.2775 23.0386 22.3871 23.0381C23.2047 23.0391 24.014 22.8738 24.7658 22.5524C24.1097 21.9284 23.5721 21.1907 23.1791 20.3751C23.1274 20.2742 23.0964 20.164 23.088 20.051C23.0797 19.9379 23.0941 19.8244 23.1305 19.717C23.1668 19.6096 23.2244 19.5107 23.2998 19.426C23.3751 19.3413 23.4667 19.2727 23.5691 19.2241C23.6716 19.1755 23.7827 19.1479 23.8959 19.1431C24.0092 19.1383 24.1222 19.1563 24.2284 19.196C24.3346 19.2357 24.4317 19.2964 24.514 19.3743C24.5962 19.4523 24.662 19.546 24.7074 19.6499C25.0724 20.4166 25.5986 21.0954 26.25 21.6402C27.3646 20.7088 28.0957 19.3985 28.3029 17.9608H22.0241C21.7996 17.9608 21.5844 17.8717 21.4257 17.713C21.267 17.5543 21.1779 17.3391 21.1779 17.1146C21.1779 16.8902 21.267 16.675 21.4257 16.5163C21.5844 16.3576 21.7996 16.2684 22.0241 16.2684H25.4089V14.576C25.4089 14.3516 25.4981 14.1364 25.6567 13.9777C25.8154 13.819 26.0307 13.7298 26.2551 13.7298C26.4795 13.7298 26.6948 13.819 26.8535 13.9777C27.0122 14.1364 27.1013 14.3516 27.1013 14.576V16.2684H30.4861C30.7106 16.2684 30.9258 16.3576 31.0845 16.5163C31.2432 16.675 31.3324 16.8902 31.3324 17.1146C31.3324 17.3391 31.2432 17.5543 31.0845 17.713C30.9258 17.8717 30.7106 17.9608 30.4861 17.9608Z" fill="#EFBA06"/>
<path d="M12.7105 7.73438L11.332 10.7663H13.7801C13.841 10.6817 13.9062 10.5971 13.9722 10.5125L12.7105 7.73438Z" fill="#EFBA06"/>
<path d="M20.33 0.613281H5.09822C3.9765 0.614625 2.9011 1.06083 2.10791 1.85401C1.31473 2.64719 0.868531 3.72259 0.867188 4.84432V14.9988C0.868531 16.1205 1.31473 17.1959 2.10791 17.9891C2.9011 18.7823 3.9765 19.2285 5.09822 19.2298H5.94443V22.0164C5.94432 22.2675 6.0187 22.5131 6.15817 22.7219C6.29763 22.9307 6.49591 23.0935 6.72792 23.1896C6.95993 23.2858 7.21523 23.3109 7.46153 23.2619C7.70783 23.2128 7.93405 23.0919 8.11157 22.9142L11.7951 19.2298H12.7141V14.1526C12.7158 13.5791 12.8013 13.0089 12.968 12.4602H10.5664L9.2531 15.3491C9.15703 15.5483 8.98681 15.702 8.77887 15.7772C8.57093 15.8525 8.34179 15.8433 8.1405 15.7518C7.93922 15.6602 7.78177 15.4935 7.70188 15.2873C7.62198 15.0811 7.62597 14.8518 7.71301 14.6485L11.944 5.3402C12.0114 5.19246 12.1197 5.0672 12.2563 4.97937C12.3928 4.89153 12.5517 4.84483 12.7141 4.84483C12.8764 4.84483 13.0354 4.89153 13.1719 4.97937C13.3084 5.0672 13.4168 5.19246 13.4841 5.3402L15.2756 9.28098C16.2625 8.5952 17.4358 8.22812 18.6375 8.22915H24.561V4.84432C24.5597 3.72259 24.1135 2.64719 23.3203 1.85401C22.5271 1.06083 21.4517 0.614625 20.33 0.613281Z" fill="#EFBA06"/>
</svg>
