<svg width="23" height="23" viewBox="0 0 23 23" fill="none" xmlns="http://www.w3.org/2000/svg">
<circle cx="11.5" cy="11.5" r="11.5" fill="#2970B7"/>
<path d="M16.8179 8.94648C16.1164 6.59857 13.9617 5 11.5063 5C9.05094 5 6.89623 6.59857 6.1947 8.94648C5.94415 9.84567 5.94415 10.7948 6.14459 11.744C6.49536 12.893 7.49755 14.8912 10.1032 17.9884C10.2035 18.1383 10.3538 18.2881 10.454 18.388C10.6043 18.5879 10.8048 18.7377 11.0052 18.8876C11.3059 19.0375 11.6566 19.0375 11.9573 18.8876C12.1577 18.7377 12.3582 18.5879 12.5085 18.388C12.6087 18.2382 12.7591 18.0883 12.8593 17.9884C15.465 14.9411 16.4672 12.893 16.7678 11.744C17.0685 10.7948 17.0685 9.84567 16.8179 8.94648ZM14.0118 10.4951C14.0118 11.8938 12.9094 12.9929 11.5063 12.9929C10.1032 12.9929 9.00083 11.8938 9.00083 10.4951C9.00083 9.09634 10.1032 7.99732 11.5063 7.99732C12.9094 7.99732 14.0118 9.09634 14.0118 10.4951Z" fill="white"/>
</svg>
