<svg width="14" height="13" viewBox="0 0 14 13" fill="none" xmlns="http://www.w3.org/2000/svg">
<path d="M10.3358 6.49994L13.5529 9.71712C13.7573 9.9213 13.8593 10.1693 13.8593 10.4612C13.8593 10.7531 13.757 11.001 13.5529 11.2053L12.0648 12.6936C11.8605 12.8979 11.6125 13 11.3208 13C11.0288 13 10.7809 12.8979 10.5766 12.6936L7.35943 9.47646L4.14221 12.6936C3.93808 12.8979 3.69006 13 3.39811 13C3.1064 13 2.85834 12.8979 2.65401 12.6936L1.16577 11.2053C0.961596 11.0012 0.859375 10.7531 0.859375 10.4612C0.859375 10.1693 0.961481 9.92141 1.16577 9.71712L4.38291 6.49994L1.16577 3.28276C0.961596 3.07843 0.859375 2.83053 0.859375 2.53854C0.859375 2.24687 0.961481 1.99881 1.16577 1.7946L2.65405 0.306395C2.85834 0.102029 3.10643 0 3.39815 0C3.69006 0 3.93796 0.102297 4.14225 0.306395L7.35947 3.52358L10.5769 0.306395C10.7811 0.102029 11.0289 0 11.3211 0C11.6128 0 11.8608 0.102297 12.0651 0.306395L13.553 1.7946C13.7573 1.99866 13.8594 2.24687 13.8594 2.53854C13.8594 2.83053 13.7573 3.07843 13.553 3.28276L10.3358 6.49994Z" fill="#FF0000"/>
</svg>
