<svg width="195" height="47" viewBox="0 0 195 47" fill="none" xmlns="http://www.w3.org/2000/svg">
<path d="M83.8082 0.650391C86.0735 0.650391 87.8368 0.872008 89.0983 1.37435C90.2962 1.87374 91.2398 2.65385 91.9324 3.70877C92.625 4.76665 93.0031 5.93386 93.0031 7.26655C93.0031 9.37935 92.3105 10.9928 90.8617 12.2161C89.4128 13.4395 87.2714 14.0511 84.4406 14.0511H81.7972V20.1679H76.3164V0.650391H83.8082ZM87.5859 7.3227C87.5859 6.54554 87.2714 5.93387 86.7059 5.59996C86.1404 5.2099 85.1935 5.04442 83.9353 5.04442H81.7303V9.71622H84.1227C85.257 9.71622 86.137 9.55074 86.7059 9.16069C87.2714 8.71449 87.5859 8.15896 87.5859 7.32566V7.3227Z" fill="#2970B7"/>
<path d="M102.303 17.3341L101.105 20.1709H95.0625L103.94 0.65332H108.41L117.163 20.1709H111.057L109.986 17.3341H102.303ZM103.879 13.3833H108.54L106.212 6.711H106.148L103.883 13.3833H103.879Z" fill="#2970B7"/>
<path d="M119.184 5.04442V0.650391H133.538V5.04442H129.195V20.1679H123.527V5.04442H119.184Z" fill="#2970B7"/>
<path d="M142.796 17.3341L141.598 20.1709H135.555L144.432 0.65332H148.902L157.655 20.1709H151.549L150.478 17.3341H142.796ZM144.308 13.3833H148.969L146.704 6.711H146.64L144.311 13.3833H144.308Z" fill="#2970B7"/>
<path fill-rule="evenodd" clip-rule="evenodd" d="M29.1545 10.5042C29.1545 10.379 29.0847 10.1921 29.0847 10.0034C29.0847 9.87816 29.0847 9.81653 29.0149 9.69132C29.0149 9.69132 29.0149 9.50449 28.9451 9.25408C28.9451 9.00368 28.8753 8.69164 28.8753 8.50288C28.8753 8.31411 28.8055 7.94044 28.8055 7.62647C28.8055 7.31251 28.7357 7.06403 28.7357 7.06403C28.7357 7.00239 28.7357 6.62679 28.6659 6.12599C28.6659 5.62518 28.5961 5.12438 28.5961 4.93754C28.5961 4.81234 28.5264 4.56194 28.5264 4.43674C28.5264 4.31154 28.4566 4.1247 28.4566 4.06114C28.4566 3.93594 28.3868 3.81073 28.3868 3.7491C28.3868 3.68746 28.317 3.56226 28.317 3.4987C28.317 3.43513 28.2472 3.31186 28.2472 3.18666C28.2472 3.06146 28.1774 2.99982 28.1774 2.93625C28.1774 2.87269 28.1774 2.74942 28.1076 2.68585C28.0378 2.62422 28.0378 2.24861 28.0378 1.99821C28.0378 1.74781 27.968 1.49741 27.968 1.43577V1.24893C27.968 1.18729 27.8982 1.06209 27.8982 0.99853C27.8284 0.873329 27.7564 0.811692 27.6866 0.748129C27.5449 0.686491 27.4751 0.622928 27.3333 0.56129C27.1915 0.499653 26.98 0.436089 26.8382 0.374452C26.6964 0.312815 26.5547 0.312815 26.4849 0.249251C26.4151 0.249251 26.2733 0.187614 26.1315 0.187614C25.9898 0.187614 25.7782 0.125977 25.7062 0.125977H23.0867V0.251177H22.4498C22.3081 0.251177 21.8828 0.312815 21.5294 0.312815C21.1761 0.312815 20.7508 0.374452 20.609 0.374452C20.4672 0.374452 19.8304 0.374452 19.1935 0.312815C18.4846 0.312815 17.0691 0.251177 15.5816 0.312815H11.8999C11.1911 0.312815 10.4124 0.374452 10.1289 0.374452C9.84533 0.374452 9.42002 0.436089 9.20846 0.436089C8.99689 0.436089 8.42981 0.497727 8.00449 0.497727C7.57918 0.497727 7.08408 0.559364 6.94231 0.559364H5.52678C5.17344 0.559364 4.67615 0.621002 4.39261 0.621002C4.10907 0.621002 3.75574 0.682639 3.61397 0.682639C3.47219 0.682639 3.18865 0.744276 3.04688 0.744276C2.90511 0.744276 2.4798 0.805914 2.12646 0.805914C1.77313 0.805914 1.41761 0.867551 1.34781 0.867551C1.27802 0.867551 1.13625 0.929188 1.06427 0.929188C0.994478 0.990826 0.922503 1.05439 0.922503 1.11603C0.852709 1.17766 0.852707 1.30286 0.780731 1.36643C0.710936 1.49163 0.710938 1.61683 0.710938 1.86723V10.9992C0.710938 11.4364 0.780731 11.9372 0.780731 12.1241C0.780731 12.3109 0.850527 12.6249 0.850527 12.8117C0.850527 12.9986 0.92032 13.3125 0.92032 13.4377C0.92032 13.6246 0.990117 13.9385 0.990117 14.1889C0.990117 14.4393 1.05991 14.6262 1.05991 14.6897C1.05991 14.7533 1.05991 15.0018 1.12971 15.2522C1.12971 15.5026 1.1995 15.9398 1.1995 16.1286C1.1995 16.379 1.2693 16.7546 1.2693 16.9414C1.2693 17.1918 1.33909 17.3787 1.33909 17.3787C1.33909 17.3787 1.40889 17.6907 1.40889 18.0047C1.40889 18.3186 1.47868 18.9427 1.47868 19.3183C1.47868 19.6939 1.54847 20.1312 1.54847 20.3199C1.54847 20.4451 1.61827 20.6955 1.61827 20.8207C1.61827 20.9459 1.68806 21.0711 1.68806 21.1328C1.68806 21.1944 1.75786 21.3196 1.75786 21.4448C1.75786 21.57 1.82765 21.6316 1.82765 21.7568C1.82765 21.8185 1.89745 21.882 1.96942 21.9437C2.0414 22.0053 2.11119 22.0689 2.18099 22.0689C2.25078 22.1305 2.39256 22.1305 2.46453 22.1941C2.6063 22.2557 2.74807 22.2557 3.31515 22.2557C3.66849 22.2557 4.37735 22.3174 4.73068 22.3174C5.15599 22.3174 5.6511 22.379 5.79287 22.379C5.93464 22.379 6.21818 22.4406 6.35995 22.4406C6.50173 22.4406 6.78527 22.5023 6.92704 22.5023H9.83007C9.97184 22.5023 10.2554 22.5639 10.4669 22.5639C10.6087 22.5639 10.9621 22.6255 11.2456 22.6255H15.069C15.1192 22.6255 15.1476 22.6255 15.1432 22.6255H16.8401C16.9819 22.6255 17.3352 22.5639 17.5489 22.5639C17.7627 22.5639 18.044 22.5023 18.1858 22.5023C18.3276 22.5023 18.6809 22.4406 18.8947 22.4406C19.1782 22.4406 19.6035 22.379 19.8871 22.379H22.3648C22.9319 22.379 23.6385 22.379 23.9941 22.3174C24.3474 22.3174 25.2678 22.3174 25.9767 22.2557C26.8971 22.2557 27.3224 22.2557 27.3922 22.1941C27.462 22.1941 27.6038 22.1324 27.6757 22.1324C27.8175 22.0708 27.8873 22.0708 28.0291 22.0072C28.1708 21.9456 28.3126 21.882 28.3824 21.882C28.4522 21.8204 28.5242 21.7568 28.5242 21.7568C28.594 21.6316 28.6659 21.5064 28.7357 21.3812C28.8055 21.1944 28.8775 21.0056 28.9473 20.8804C28.9473 20.7552 29.0171 20.5684 29.0171 20.5048C29.0171 20.4413 29.0869 20.1928 29.0869 20.004C29.0869 19.8153 29.1567 18.9408 29.1567 18.0644C29.1567 17.188 29.2265 16.1883 29.2265 15.8762V10.9973C29.2265 10.8104 29.1567 10.6217 29.1567 10.4965L29.1545 10.5042ZM25.0475 3.12502C24.9777 3.56226 24.6942 4.06306 24.3387 4.68907C23.488 5.93915 22.0725 7.5032 20.1597 9.25408L23.4182 19.2605C23.4182 19.3222 23.4182 19.3857 23.3485 19.4474L21.6494 20.9478C21.5796 21.0095 21.5076 21.0095 21.4378 21.0095C21.368 21.0095 21.296 20.9478 21.296 20.8843L16.8335 12.0027C14.9207 13.5032 13.0799 14.7552 11.5924 15.6933L12.8661 19.6958C12.8661 19.7575 12.8661 19.821 12.7963 19.8827L11.5226 21.0076C11.4528 21.0692 11.3808 21.0692 11.311 21.0692C11.1693 21.0692 11.0995 21.0076 11.0995 20.944L9.11685 16.8162C8.62174 16.9414 8.3382 16.8779 8.12445 16.691C7.91289 16.5042 7.91289 16.1902 7.98269 15.8146L3.30861 14.0637C3.23882 14.0637 3.16684 14.0021 3.16684 13.8769C3.16684 13.8152 3.16684 13.7517 3.23664 13.69L4.51039 12.5652C4.58019 12.5035 4.65216 12.5035 4.72196 12.5035C6.35123 12.8791 8.68718 13.4416 9.32624 13.6284C10.3186 12.3148 11.7342 10.6891 13.4332 9.06339L3.4482 5.12245C3.37841 5.12245 3.30643 5.06082 3.30643 4.99725C3.30643 4.93369 3.30643 4.87205 3.37623 4.81042L5.07529 3.30993C5.14509 3.24829 5.21706 3.24829 5.28686 3.24829C8.96854 4.18634 15.6972 5.87559 16.6896 6.06242C18.6722 4.37318 20.4432 3.12309 21.789 2.43545C22.4978 2.05985 23.0627 1.87301 23.56 1.80945C24.1271 1.74781 24.4804 1.80945 24.764 2.05985C25.0475 2.31025 25.1173 2.68585 25.0475 3.12309V3.12502Z" fill="#2970B7"/>
<path fill-rule="evenodd" clip-rule="evenodd" d="M51.8112 33.3325L49.8983 28.8927C49.8286 28.7675 49.6868 28.7675 49.6148 28.8927L48.1993 32.0208C48.1295 32.146 47.9877 32.146 47.9157 32.0208C47.8459 31.9592 47.7042 31.8956 47.6322 32.0208L46.0029 34.8985C45.9331 35.0237 46.0727 35.1489 46.2145 35.0237L49.1895 32.3964C49.2593 32.3348 49.3313 32.3964 49.4011 32.4581L51.5974 36.9614C51.6672 37.0866 51.881 37.0231 51.881 36.8998L51.9508 35.6497C51.9508 35.5245 52.0925 35.4629 52.1623 35.5245L54.64 36.4009C54.7818 36.4009 54.9236 36.2757 54.9236 36.2757L52.3041 32.1479C52.2343 32.0227 52.0205 32.0863 52.0205 32.2096L52.0903 33.2728C52.0903 33.4597 51.8788 33.4597 51.8068 33.3345L51.8112 33.3325Z" fill="#79368C"/>
<path fill-rule="evenodd" clip-rule="evenodd" d="M58.5416 42.7763H46.1487C45.9371 42.7763 45.7234 42.7147 45.6536 42.5259L44.6612 40.4611C44.4496 40.1491 43.9523 40.1491 43.8106 40.4611L42.8902 42.5259C42.8204 42.7128 42.6066 42.838 42.395 42.838H32.1963C31.8429 42.838 31.5594 42.4624 31.771 42.1503L39.2783 30.5799C39.4898 30.2678 39.9871 30.2678 40.1987 30.5799L43.2435 35.3953C43.4551 35.7073 43.9523 35.7073 44.1639 35.3953L49.1215 26.8893C49.3331 26.5773 49.8304 26.5773 50.0419 26.8893L58.9648 42.1503V35.7709C58.9648 35.3336 58.895 34.8328 58.895 34.646C58.895 34.4592 58.8252 34.1452 58.8252 33.9584C58.8252 33.7715 58.7554 33.4576 58.7554 33.3323C58.7554 33.1455 58.6856 32.8315 58.6856 32.5811C58.6856 32.3307 58.6158 32.1439 58.6158 32.0803C58.6158 32.0168 58.6158 31.7683 58.546 31.5179C58.546 31.2675 58.4762 30.8303 58.4762 30.6415C58.4762 30.3911 58.4064 30.0155 58.4064 29.8287C58.4064 29.5782 58.3366 29.3914 58.3366 29.3914C58.3366 29.3914 58.2668 29.0794 58.2668 28.7654C58.2668 28.4514 58.197 27.8274 58.197 27.4518C58.197 27.0762 58.1272 26.6389 58.1272 26.4502C58.1272 26.325 58.0574 26.0746 58.0574 25.9494C58.0574 25.8241 57.9876 25.6989 57.9876 25.6373C57.9876 25.5757 57.9178 25.4505 57.9178 25.3253C57.9178 25.2001 57.8481 25.1384 57.8481 25.0132C57.8481 24.9516 57.7783 24.888 57.7063 24.8264C57.6365 24.7648 57.5645 24.7012 57.4947 24.7012C57.4249 24.6396 57.2831 24.6396 57.2112 24.576C57.0694 24.5144 56.9276 24.5144 56.3605 24.5144C56.0072 24.5144 55.2984 24.4527 54.945 24.4527C54.5197 24.4527 54.0246 24.3911 53.8828 24.3911C53.7411 24.3911 53.4575 24.3294 53.3158 24.3294C53.174 24.3294 52.8904 24.2678 52.7487 24.2678H49.8456C49.7039 24.2678 49.4203 24.2062 49.2088 24.2062C49.067 24.2062 48.7137 24.1445 48.4301 24.1445H44.6067C44.5565 24.1445 44.5281 24.1445 44.5325 24.1445H42.8356C42.6939 24.1445 42.3405 24.2062 42.1268 24.2062C41.913 24.2062 41.6317 24.2678 41.4899 24.2678C41.3481 24.2678 40.9948 24.3294 40.781 24.3294C40.4975 24.3294 40.0722 24.3911 39.7886 24.3911H37.3109C36.7438 24.3911 36.0372 24.3911 35.6816 24.4527C35.3283 24.4527 34.4079 24.4527 33.699 24.5144C32.7786 24.5144 32.3533 24.5144 32.2835 24.576C32.2137 24.576 32.0719 24.6376 32 24.6376C31.8582 24.6993 31.7884 24.6993 31.6466 24.7628C31.5049 24.8264 31.3631 24.888 31.2933 24.888C31.2235 24.9497 31.1515 25.0132 31.1515 25.0132L30.94 25.3888C30.8702 25.5757 30.7982 25.7644 30.7284 25.8896C30.7284 26.0148 30.6586 26.2017 30.6586 26.2652C30.6586 26.3288 30.5888 26.5773 30.5888 26.766C30.5888 26.9548 30.519 27.8293 30.519 28.7057C30.519 29.5821 30.4492 30.5818 30.4492 30.8938V35.7728C30.4492 35.9596 30.519 36.1484 30.519 36.2736C30.519 36.3988 30.5888 36.5856 30.5888 36.7744C30.5888 36.8996 30.5888 36.9612 30.6586 37.0864C30.6586 37.0864 30.6586 37.2733 30.7284 37.5237C30.7284 37.7741 30.7982 38.0861 30.7982 38.2749C30.7982 38.4637 30.868 38.8373 30.868 39.1513C30.868 39.4653 30.9378 39.7137 30.9378 39.7137C30.9378 39.7754 30.9378 40.151 31.0076 40.6518C31.0076 41.1526 31.0774 41.6534 31.0774 41.8402C31.0774 41.9654 31.1472 42.2158 31.1472 42.341C31.1472 42.4662 31.217 42.6531 31.217 42.7166C31.217 42.8418 31.2868 42.967 31.2868 43.0287C31.2868 43.0903 31.3566 43.2155 31.3566 43.2791C31.3566 43.3426 31.4263 43.4659 31.4263 43.5911C31.4263 43.7163 31.4961 43.778 31.4961 43.8415C31.4961 43.9051 31.4961 44.0284 31.5659 44.0919C31.5659 44.2171 31.6357 44.5292 31.6357 44.7796C31.6357 45.03 31.7055 45.2804 31.7055 45.342V45.5288C31.7055 45.5905 31.7753 45.7157 31.7753 45.7792C31.8451 45.9044 31.9171 45.9661 31.9869 46.0296C32.1287 46.0913 32.1984 46.1548 32.3402 46.2165C32.482 46.2781 32.6936 46.3417 32.8353 46.4033C32.9771 46.465 33.1189 46.465 33.1887 46.5285C33.2585 46.5285 33.4002 46.5902 33.542 46.5902C33.6838 46.5902 33.8953 46.6518 33.9673 46.6518H36.5868V46.5266H37.2237C37.3655 46.5266 37.7908 46.465 38.1441 46.465C38.4974 46.465 38.9227 46.4033 39.0645 46.4033C39.2063 46.4033 39.8432 46.4033 40.48 46.465C41.1889 46.465 42.6044 46.5266 44.0919 46.465H47.7736C48.4825 46.465 49.2611 46.4033 49.5446 46.4033C49.8282 46.4033 50.2535 46.3417 50.4651 46.3417C50.6766 46.3417 51.2437 46.28 51.669 46.28C52.0943 46.28 52.5895 46.2184 52.7312 46.2184H54.1467C54.5001 46.2184 54.9974 46.1568 55.2809 46.1568C55.5645 46.1568 55.9178 46.0951 56.0596 46.0951C56.2013 46.0951 56.4849 46.0335 56.6266 46.0335C56.7684 46.0335 57.1937 45.9719 57.5471 45.9719C57.9004 45.9719 58.2559 45.9102 58.3257 45.9102C58.4675 45.9102 58.5373 45.8486 58.6093 45.8486C58.679 45.7869 58.751 45.7234 58.751 45.6617C58.8208 45.6001 58.8208 45.4749 58.8928 45.4113C58.9626 45.2861 58.9626 45.1609 58.9626 44.9105V42.6126C58.8732 42.7378 58.7139 42.8168 58.5373 42.7841L58.5416 42.7763Z" fill="#79368C"/>
<path fill-rule="evenodd" clip-rule="evenodd" d="M42.8438 36.7032C42.9078 36.7091 42.9521 36.6739 42.8438 36.7032V36.7032Z" fill="white"/>
<path fill-rule="evenodd" clip-rule="evenodd" d="M37.7198 34.3326L35.5234 37.7727C35.4536 37.8344 35.5234 37.9596 35.6652 37.8979L37.7198 37.1467C37.7896 37.1467 37.8616 37.2084 37.8616 37.2719L37.9314 38.2735C37.9314 38.3987 38.0731 38.4604 38.1429 38.3352L39.9838 34.5194C40.0536 34.3942 40.1255 34.3942 40.1953 34.4578L42.745 36.6459C42.7603 36.6748 42.7843 36.6883 42.8083 36.696L41.4691 34.269C41.3993 34.1438 41.2575 34.1438 41.2575 34.269C41.2575 34.3307 41.1157 34.3942 41.046 34.269L39.842 31.6418C39.842 31.5166 39.7002 31.5166 39.6304 31.6418L38.0731 35.3323C38.0731 35.4575 37.8616 35.3939 37.8616 35.2707L37.9314 34.3942C37.9314 34.269 37.7896 34.2074 37.7198 34.3326Z" fill="#79368C"/>
<path fill-rule="evenodd" clip-rule="evenodd" d="M28.5156 34.646C28.5156 34.4592 28.4458 34.1452 28.4458 33.9584C28.4458 33.7715 28.376 33.4576 28.376 33.3323C28.376 33.1455 28.3062 32.8315 28.3062 32.5811C28.3062 32.3307 28.2364 32.1439 28.2364 32.0803C28.2364 32.0168 28.2364 31.7683 28.1666 31.5179C28.1666 31.2675 28.0968 30.8303 28.0968 30.6415C28.0968 30.3911 28.027 30.0155 28.027 29.8287C28.027 29.5782 27.9572 29.3914 27.9572 29.3914C27.9572 29.3914 27.8874 29.0794 27.8874 28.7654C27.8874 28.4514 27.8176 27.8274 27.8176 27.4518C27.8176 27.0762 27.7478 26.6389 27.7478 26.4502C27.7478 26.325 27.678 26.0746 27.678 25.9494C27.678 25.8241 27.6082 25.6989 27.6082 25.6373C27.6082 25.5757 27.5384 25.4505 27.5384 25.3253C27.5384 25.2001 27.4686 25.1384 27.4686 25.0132C27.4686 24.9516 27.3988 24.888 27.3269 24.8264C27.2571 24.7648 27.1851 24.7012 27.1153 24.7012C27.0455 24.6396 26.9037 24.6396 26.8318 24.576C26.69 24.5144 26.5482 24.5144 25.9811 24.5144C25.6278 24.5144 24.9189 24.4527 24.5656 24.4527C24.1403 24.4527 23.6452 24.3911 23.5034 24.3911C23.3616 24.3911 23.0781 24.3294 22.9363 24.3294C22.7946 24.3294 22.511 24.2678 22.3692 24.2678H19.4662C19.3244 24.2678 19.0409 24.2062 18.8293 24.2062C18.6876 24.2062 18.3342 24.1445 18.0507 24.1445H14.2272C14.1771 24.1445 14.1487 24.1445 14.1531 24.1445H12.4562C12.2446 24.1445 11.9611 24.2062 11.7473 24.2062C11.5336 24.2062 11.2522 24.2678 11.1105 24.2678C10.9687 24.2678 10.6154 24.3294 10.4016 24.3294C10.1181 24.3294 9.69276 24.3911 9.40922 24.3911H6.9315C6.36442 24.3911 5.65774 24.3911 5.30223 24.4527C4.94889 24.4527 4.02847 24.4527 3.31962 24.5144C2.3992 24.5144 1.97388 24.5144 1.90409 24.576C1.83429 24.576 1.69252 24.6376 1.62055 24.6376C1.47878 24.6993 1.40898 24.6993 1.26721 24.7628C1.12544 24.8264 0.983668 24.888 0.913873 24.888C0.844078 24.9497 0.772106 25.0132 0.702311 25.0132C0.632516 25.1384 0.56054 25.2636 0.490745 25.3888C0.42095 25.5757 0.348974 25.7644 0.279179 25.8896C0.279179 26.0148 0.209383 26.2017 0.209383 26.2652C0.209383 26.3288 0.13959 26.5773 0.13959 26.766C0.13959 26.9548 0.0697931 27.8293 0.0697931 28.7057C0.0697931 29.5821 0 30.5818 0 30.8938V35.7728C0 35.9596 0.0697931 36.1484 0.0697931 36.2736C0.0697931 36.3988 0.13959 36.5856 0.13959 36.7744C0.13959 36.8996 0.139588 36.9612 0.209383 37.0864C0.209383 37.0864 0.209384 37.2733 0.279179 37.5237C0.279179 37.7741 0.348972 38.0861 0.348972 38.2749C0.348972 38.4637 0.418769 38.8373 0.418769 39.1513C0.418769 39.4653 0.488562 39.7137 0.488562 39.7137C0.488562 39.7754 0.488563 40.151 0.558358 40.6518C0.558358 41.1526 0.628151 41.6534 0.628151 41.8402C0.628151 41.9654 0.697948 42.2158 0.697948 42.341C0.697948 42.4662 0.767741 42.6531 0.767741 42.7166C0.767741 42.8418 0.837537 42.967 0.837537 43.0287C0.837537 43.0903 0.90733 43.2155 0.90733 43.2791C0.90733 43.3426 0.977127 43.4659 0.977127 43.5911C0.977127 43.7163 1.04692 43.778 1.04692 43.8415C1.04692 43.9051 1.04692 44.0284 1.11672 44.0919C1.11672 44.2171 1.18651 44.5292 1.18651 44.7796C1.18651 45.03 1.25631 45.2804 1.25631 45.342V45.5288C1.25631 45.5905 1.3261 45.7157 1.3261 45.7792C1.3959 45.9044 1.46787 45.9661 1.53766 46.0296C1.67944 46.0913 1.74923 46.1548 1.891 46.2165C2.03277 46.2781 2.24434 46.3417 2.38611 46.4033C2.52788 46.465 2.66965 46.465 2.73945 46.5285C2.80924 46.5285 2.95101 46.5902 3.09278 46.5902C3.23455 46.5902 3.44612 46.6518 3.51809 46.6518H6.20956V46.5266H6.84644C6.98821 46.5266 7.41352 46.465 7.76686 46.465C8.12019 46.465 8.54551 46.4033 8.68728 46.4033C8.82905 46.4033 9.46592 46.4033 10.1028 46.465C10.8117 46.465 12.2272 46.5266 13.7147 46.465H17.3964C18.1052 46.465 18.8839 46.4033 19.1674 46.4033C19.4509 46.4033 19.8763 46.3417 20.0878 46.3417C20.2994 46.3417 20.8665 46.28 21.2918 46.28C21.7171 46.28 22.2122 46.2184 22.354 46.2184H23.7695C24.1228 46.2184 24.6201 46.1568 24.9037 46.1568C25.1872 46.1568 25.5405 46.0951 25.6823 46.0951C25.8241 46.0951 26.1076 46.0335 26.2494 46.0335C26.3912 46.0335 26.8165 45.9719 27.1698 45.9719C27.5232 45.9719 27.8787 45.9102 27.9485 45.9102C28.0183 45.9102 28.16 45.8486 28.232 45.8486C28.3018 45.7869 28.3738 45.7234 28.3738 45.6617C28.4436 45.6001 28.4436 45.4749 28.5156 45.4113C28.5853 45.2861 28.5853 45.1609 28.5853 44.9105V35.7786C28.5853 35.3413 28.5156 34.8405 28.5156 34.6537V34.646ZM20.4412 29.3298L21.9287 28.0161C22.2122 27.7657 22.7073 27.7657 22.9909 28.0161C23.2744 28.2665 23.2744 28.7038 22.9909 28.9542L21.5033 30.2678C21.2198 30.5182 20.7247 30.5182 20.4412 30.2678C20.1576 30.0174 20.1576 29.5802 20.4412 29.3298ZM14.2098 25.7644C14.2098 25.3888 14.5631 25.0768 14.9884 25.0768C15.4138 25.0768 15.7671 25.3888 15.7671 25.7644V27.6405C15.7671 28.0161 15.4138 28.2665 14.9884 28.3282C14.5631 28.3282 14.2098 28.0161 14.2098 27.6405V25.7644ZM6.98603 28.0161C7.26957 27.7657 7.76467 27.7657 8.04822 28.0161L9.53572 29.3298C9.81926 29.5802 9.81926 30.0174 9.53572 30.2678C9.25218 30.5182 8.75707 30.5182 8.47353 30.2678L6.98603 28.9542C6.70249 28.7038 6.70249 28.2665 6.98603 28.0161ZM4.43633 35.8325C4.01102 35.8325 3.65768 35.5205 3.65768 35.1449C3.65768 34.7693 4.01102 34.4572 4.43633 34.4572H6.56072C6.98603 34.4572 7.26957 34.7076 7.33936 35.1449C7.33936 35.5205 6.98603 35.8325 6.56072 35.8325H4.43633ZM9.53572 40.8367L8.04822 42.1503C7.76467 42.4007 7.26957 42.4007 6.98603 42.1503C6.70249 41.8999 6.70249 41.4627 6.98603 41.2123L8.47353 39.8987C8.75707 39.6483 9.25218 39.6483 9.53572 39.8987C9.81926 40.1491 9.81926 40.5863 9.53572 40.8367ZM15.8369 44.402C15.8369 44.7776 15.4835 45.0897 15.0582 45.0897C14.6329 45.0897 14.2796 44.7776 14.2796 44.402V42.5259C14.2796 42.2139 14.5631 41.8999 15.0582 41.8383C15.4835 41.8383 15.8369 42.1503 15.8369 42.5259V44.402ZM15.0582 40.5863C11.6579 40.5863 8.82687 38.0842 8.82687 35.0832C8.82687 32.0823 11.6601 29.5802 15.0582 29.5802C18.4564 29.5802 21.2896 32.0187 21.2896 35.0832C21.2896 38.1478 18.4564 40.5863 15.0582 40.5863ZM22.9909 42.1503C22.7073 42.4007 22.2122 42.4007 21.9287 42.1503L20.4412 40.8367C20.1576 40.5863 20.1576 40.1491 20.4412 39.8987C20.7247 39.6483 21.2198 39.6483 21.5033 39.8987L22.9909 41.2123C23.2744 41.4627 23.2744 41.8999 22.9909 42.1503ZM25.5405 35.7709H23.4162C23.0628 35.7709 22.7073 35.4588 22.6375 35.0832C22.6375 34.7076 22.9909 34.3956 23.4162 34.3956H25.5405C25.9659 34.3956 26.3192 34.7076 26.3192 35.0832C26.3192 35.4588 25.9659 35.7709 25.5405 35.7709Z" fill="#EFBA06"/>
<path fill-rule="evenodd" clip-rule="evenodd" d="M59.0842 10.3782C59.0842 10.253 59.0144 10.0661 59.0144 9.87739C59.0144 9.75218 59.0144 9.69055 58.9446 9.56535C58.9446 9.56535 58.9446 9.37851 58.8748 9.12811C58.8748 8.8777 58.805 8.56567 58.805 8.3769C58.805 8.18814 58.7352 7.81446 58.7352 7.5005C58.7352 7.18653 58.6654 6.93805 58.6654 6.93805C58.6654 6.87642 58.6654 6.50081 58.5956 6.00001C58.5956 5.49921 58.5258 4.9984 58.5258 4.81157C58.5258 4.68637 58.456 4.43596 58.456 4.31076C58.456 4.18556 58.3862 3.99872 58.3862 3.93516C58.3862 3.80996 58.3165 3.68476 58.3165 3.62312C58.3165 3.56148 58.2467 3.43628 58.2467 3.37272C58.2467 3.30916 58.1769 3.18588 58.1769 3.06068C58.1769 2.93548 58.1071 2.87384 58.1071 2.81028C58.1071 2.74671 58.1071 2.62344 58.0373 2.55988C58.0373 2.43468 57.9675 2.12264 57.9675 1.87223C57.9675 1.62183 57.8977 1.37143 57.8977 1.30979V1.12296C57.8977 1.06132 57.8279 0.936117 57.8279 0.872554C57.7581 0.747353 57.6861 0.685716 57.6163 0.622152C57.4746 0.560515 57.4048 0.496951 57.263 0.435314C57.1212 0.373676 56.9096 0.310113 56.7679 0.248476C56.6261 0.186838 56.4145 0.186838 56.4145 0.123275C56.3447 0.123275 56.203 0.0616374 56.0612 0.0616374C55.9194 0.0616374 55.7079 0 55.6359 0H53.0164V0.125201H52.3795C52.2378 0.125201 51.8124 0.186838 51.4591 0.186838C51.1058 0.186838 50.6805 0.248476 50.5387 0.248476C50.3969 0.248476 49.76 0.248476 49.1232 0.186838C48.4143 0.186838 46.9988 0.125201 45.5113 0.186838H41.8296C41.1208 0.186838 40.3421 0.248476 40.0586 0.248476C39.775 0.248476 39.3497 0.310113 39.1381 0.310113C38.9266 0.310113 38.3595 0.37175 37.9342 0.37175C37.5089 0.37175 37.0138 0.433388 36.872 0.433388H35.4565C35.1031 0.433388 34.6058 0.495025 34.3223 0.495025C34.0388 0.495025 33.6854 0.556662 33.5437 0.556662C33.4019 0.556662 33.1183 0.6183 32.9766 0.6183C32.8348 0.6183 32.4095 0.679937 32.0561 0.679937C31.7028 0.679937 31.3473 0.741574 31.2775 0.741574C31.1357 0.741574 31.0659 0.803212 30.994 0.803212C30.9242 0.864849 30.8522 0.928413 30.8522 0.99005C30.7824 1.05169 30.7824 1.17689 30.7104 1.24045C30.6406 1.36565 30.6406 1.49085 30.6406 1.74126V10.8732C30.6406 11.3105 30.7104 11.8113 30.7104 11.9981C30.7104 12.1849 30.7802 12.4989 30.7802 12.6857C30.7802 12.8726 30.85 13.1865 30.85 13.3117C30.85 13.4986 30.9198 13.8125 30.9198 14.0629C30.9198 14.3133 30.9896 14.5002 30.9896 14.5638C30.9896 14.6273 30.9896 14.8758 31.0594 15.1262C31.0594 15.3766 31.1292 15.8138 31.1292 16.0026C31.1292 16.253 31.199 16.6286 31.199 16.8154C31.199 17.0658 31.2688 17.2527 31.2688 17.2527C31.2688 17.2527 31.3386 17.5647 31.3386 17.8787C31.3386 18.1926 31.4084 18.8167 31.4084 19.1923C31.4084 19.5679 31.4782 20.0052 31.4782 20.1939C31.4782 20.3191 31.548 20.5695 31.548 20.6947C31.548 20.8199 31.6177 20.9451 31.6177 21.0068C31.6177 21.0684 31.6875 21.1936 31.6875 21.3188C31.6875 21.444 31.7573 21.5057 31.7573 21.6309C31.7573 21.6925 31.8271 21.7561 31.8991 21.8177C31.9711 21.8793 32.0409 21.9429 32.1107 21.9429C32.1805 22.0045 32.3222 22.0045 32.3942 22.0681C32.536 22.1297 32.6778 22.1297 33.2448 22.1297C33.5982 22.1297 34.307 22.1914 34.6604 22.1914C35.0857 22.1914 35.5808 22.253 35.7226 22.253C35.9341 22.253 36.1479 22.3146 36.2896 22.3146C36.4314 22.3146 36.715 22.3763 36.8567 22.3763H39.7598C39.9015 22.3763 40.1851 22.4379 40.3966 22.4379C40.5384 22.4379 40.8917 22.4996 41.1753 22.4996H44.9987C45.0489 22.4996 45.0772 22.4996 45.0729 22.4996H46.7698C46.9813 22.4996 47.2649 22.4379 47.4786 22.4379C47.6924 22.4379 47.9737 22.3763 48.1155 22.3763C48.2573 22.3763 48.6106 22.3146 48.8244 22.3146C49.1079 22.3146 49.5332 22.253 49.8168 22.253H52.2945C52.8616 22.253 53.5682 22.253 53.9237 22.1914C54.2771 22.1914 55.1975 22.1914 55.9064 22.1297C56.8268 22.1297 57.2521 22.1297 57.3219 22.0681C57.3917 22.0681 57.5334 22.0065 57.5334 22.0065C57.6752 21.9448 57.745 21.9448 57.8868 21.8813C58.0285 21.8196 58.1703 21.7561 58.2401 21.7561C58.3099 21.6944 58.3819 21.6309 58.4517 21.6309C58.5215 21.5057 58.5935 21.3805 58.6632 21.2553C58.733 21.0684 58.805 20.8797 58.8748 20.7545C58.8748 20.6293 58.9446 20.4424 58.9446 20.3789C58.9446 20.3153 59.0144 20.0668 59.0144 19.878C59.0144 19.6893 59.0842 18.8148 59.0842 17.9384C59.0842 17.062 59.154 16.0623 59.154 15.7503V10.8713C59.154 10.6845 59.0842 10.4957 59.0842 10.3705V10.3782ZM56.4865 13.9416L56.0612 13.6296C56.0263 13.6026 55.974 13.5833 55.9129 13.5833C55.8518 13.5833 55.7799 13.6007 55.7079 13.6296C55.5683 13.7567 55.5683 13.8838 55.6403 14.0052L56.5585 15.1936C56.7024 15.4479 56.7024 15.7599 56.4145 16.0103L54.8594 17.3201H54.7875C54.5977 17.374 54.3556 17.3336 54.2531 17.2796C54.0066 17.3297 53.7602 17.2431 53.5137 17.0716C53.2323 16.8231 53.2323 16.3821 53.5137 16.1336L54.4319 15.3862C54.5759 15.2591 54.5759 15.1377 54.5039 15.0106L53.8714 14.14H53.867C53.8365 14.1361 53.8147 14.1361 53.7951 14.1361H53.5137C53.0164 14.1361 52.5889 14.0726 52.168 13.9455C52.024 13.8857 51.8146 13.9455 51.7427 14.0726L50.7524 15.887C50.6805 16.0142 50.6805 16.0739 50.7524 16.1991L52.5911 18.3891C52.807 18.7012 52.7351 19.0787 52.4515 19.3272C52.4515 19.3272 52.216 19.4813 51.9062 19.2732C51.6249 19.3368 51.361 19.2424 51.1058 19.0151L48.8374 16.3262C48.6979 16.1355 48.6259 15.8235 48.7698 15.6366L50.253 12.9477C50.3249 12.8206 50.3249 12.6992 50.181 12.5721C49.9912 12.4045 49.8015 12.2639 49.6052 12.1464C49.3238 12.0597 49.0512 11.9923 48.8353 11.9461C48.061 11.819 47.2082 12.0097 46.3597 12.3853C46.2158 12.5085 46.1438 12.6973 46.2158 12.8206L47.9868 15.7638C48.0588 15.9506 48.0588 16.1355 47.9868 16.3262L46.7131 18.9516C46.5691 19.1384 46.7807 19.3907 46.9944 19.3907H47.5593C47.9846 19.3907 48.3402 19.7028 48.3402 20.0745C48.3402 20.4463 47.9868 20.7005 47.5593 20.7005H45.7883C45.6967 20.6832 45.6138 20.6601 45.5375 20.637H45.2954C45.2234 20.637 45.0794 20.637 44.942 20.5772C44.5887 20.4501 44.4447 20.2016 44.4447 19.8877C44.4447 19.7605 44.4447 19.7008 44.5167 19.5756L46.2158 16.1336C46.2878 16.07 46.2878 15.9487 46.2158 15.8851L44.87 13.5737C44.8962 13.5506 44.9158 13.5333 44.942 13.5101C44.87 13.3252 44.5887 13.2617 44.4447 13.383C44.0696 13.591 43.6334 13.828 43.171 14.036C42.9398 14.14 42.6977 14.2402 42.4621 14.3211C42.2462 14.3846 42.1808 14.5695 42.2462 14.6967L43.171 16.515L43.4523 17.0735C43.5963 17.322 43.5243 17.5763 43.3804 17.7631L43.1688 18.0212L42.4599 18.888C42.316 19.0787 42.4599 19.3907 42.7413 19.3907H42.8133C42.942 19.3907 43.0597 19.4177 43.1666 19.4678C43.4174 19.5814 43.5919 19.8126 43.5919 20.0745C43.5919 20.4501 43.2386 20.7005 42.8111 20.7005H41.0401C40.8808 20.6736 40.7478 20.6331 40.6387 20.5772H40.4752C40.4032 20.5772 40.2592 20.5772 40.1872 20.5137C39.6223 20.3866 39.4784 20.0745 39.6943 19.5756C39.6943 19.5121 39.7663 19.4485 39.8339 19.3888C40.1218 19.0768 41.2516 17.6976 41.6769 17.2623C41.7489 17.1987 41.7489 17.0716 41.7489 16.9503L40.6954 14.7833C40.5668 14.7699 40.4533 14.7602 40.4032 14.7602H39.7663C39.6223 14.7602 39.4784 14.8238 39.413 14.9471L37.498 19.5756C37.498 19.6392 37.426 19.7606 37.2864 19.8241C37.2297 19.8549 37.1468 19.8472 37.0552 19.8068C36.8611 19.9012 36.6234 19.9435 36.4336 19.8877C36.0126 19.7605 35.8687 19.3888 36.0126 19.0132L37.7793 14.6331C37.8513 14.5098 37.7793 14.3211 37.5699 14.2575C32.898 12.5702 31.4084 6.93998 35.4434 3.8793C36.7215 2.94126 38.2766 2.50016 39.8339 2.62729L39.9321 2.6427C41.4217 2.76983 42.8831 3.37464 43.9453 4.50338C45.7119 6.31783 45.5004 9.12811 43.448 10.6922C42.8111 11.1313 42.0303 11.4453 41.2516 11.5031C39.9059 11.6938 38.4227 10.6922 38.1348 10.3146C37.7139 9.81575 36.7891 7.81639 37.9953 6.43725C38.3486 5.93837 39.1294 5.49921 39.7663 5.62633C39.9059 5.6899 40.1196 5.74961 40.2592 5.81125C40.9681 6.18685 41.3214 6.81285 41.2494 7.43886C41.1818 7.62377 41.1098 7.7509 40.9681 7.87417C40.8285 8.0013 39.6943 7.6257 39.7663 7.24817C39.8339 6.81285 39.1294 6.87642 38.9855 6.99969C38.2046 7.6257 38.0672 8.69087 38.7739 9.37466C39.6921 10.3127 41.3214 10.4398 42.3836 9.62891C43.8013 8.56374 43.9453 6.62794 42.7369 5.37593C41.1098 3.68476 38.2744 3.49985 36.4314 4.93677C34.1674 6.68765 33.9559 10.3782 36.4314 12.1271C39.6202 14.3808 41.8165 13.1288 44.0805 11.8787C45.6422 11.0042 47.3412 10.0026 49.3216 10.5053C49.4656 10.5053 49.5332 10.4418 49.5332 10.3782C49.5332 9.87931 50.1701 9.44015 50.458 9.00483L49.8168 8.5021C49.217 8.02249 49.7971 7.45042 50.1548 7.45042C50.2159 7.45042 50.2726 7.46775 50.314 7.50435L50.7394 7.81639C50.8789 7.8761 51.0207 7.8761 51.1647 7.81639C52.5104 6.93613 54.3469 7.06326 55.6926 8.00323C57.0427 9.00483 57.3917 10.6286 56.6894 11.9422C56.6174 12.0694 56.6174 12.2543 56.757 12.3178L57.1823 12.6299C57.5356 12.8784 57.5356 13.3194 57.5356 13.8819C57.1823 14.1304 56.8268 14.1939 56.4734 13.9416H56.4865Z" fill="#3EAE64"/>
<path fill-rule="evenodd" clip-rule="evenodd" d="M54.715 9.12583C54.3617 8.81379 53.8687 8.62695 53.2973 8.62695H53.0857C52.4489 8.62695 51.884 8.87543 51.5306 9.31652C51.1773 9.68827 50.9614 10.191 51.0333 10.7534C51.0333 11.0655 51.1773 11.3159 51.3147 11.5644V11.6279C51.4586 11.8128 51.5961 12.0035 51.812 12.1268C52.8022 12.8164 54.2199 12.6931 54.9942 11.8783C55.3475 11.5027 55.4915 11.0674 55.4915 10.6899C55.4915 10.0639 55.2799 9.50143 54.7106 9.12583H54.715Z" fill="#3EAE64"/>
<path d="M81.6701 40.2714V46.5537H76.3164V27.0361H83.5572C85.8225 27.0361 87.5256 27.2577 88.7838 27.7601C89.9816 28.2063 90.9888 28.9834 91.7417 30.0945C92.4979 31.1524 92.876 32.4289 92.876 33.7646C92.876 35.3219 92.3707 36.6575 91.3636 37.8247C90.3564 38.9358 89.0347 39.6597 87.3952 39.9375L93.3143 46.6098H86.8932L81.7939 40.3276H81.6667V40.2714H81.6701ZM87.3985 34.0985C87.3985 33.2652 87.084 32.6535 86.4549 32.1512C85.7623 31.705 84.9425 31.4834 83.8718 31.4834H81.7303V36.9323H83.8082C84.9425 36.9323 85.8225 36.7107 86.4516 36.2083C87.0806 35.7089 87.3952 34.985 87.3952 34.0955L87.3985 34.0985Z" fill="#EFBA06"/>
<path d="M114.143 39.0486C114.143 41.1052 113.765 42.6063 113.009 43.6642C112.252 44.7221 111.309 45.5554 110.051 46.1109C108.793 46.6665 107.407 47.0004 105.708 47.0004C103.817 47.0004 102.244 46.6665 100.986 45.9986C99.6647 45.2747 98.6575 44.4414 98.0284 43.3864C97.3994 42.3286 97.1484 40.8836 97.1484 39.0486V27.0928H102.817V38.9924C102.817 40.2158 103.068 41.1052 103.509 41.7169C103.951 42.3286 104.707 42.6063 105.714 42.6063C106.721 42.6063 107.414 42.3286 107.856 41.8292C108.297 41.3298 108.485 40.3842 108.485 39.0486V27.1489H114.153V39.0486H114.143Z" fill="#EFBA06"/>
<path d="M117.906 31.4868V27.0928H132.261V31.4868H127.918V46.6103H122.249V31.4868H117.906Z" fill="#EFBA06"/>
<path d="M148.199 27.0928V31.4868H141.336V34.5452H148.011V38.9392H141.336V42.2754H148.199V46.6694H135.922V27.1519H148.199V27.0957V27.0928Z" fill="#EFBA06"/>
<path d="M158.605 40.2714V46.5537H153.191V27.0361H160.432C162.698 27.0361 164.401 27.2577 165.659 27.7601C166.857 28.2063 167.864 28.9834 168.617 30.0945C169.373 31.1524 169.751 32.4289 169.751 33.7646C169.751 35.3219 169.246 36.6575 168.239 37.8247C167.231 38.9358 165.91 39.6597 164.27 39.9375L170.253 46.5537H163.768L158.669 40.2714H158.605ZM164.274 34.0985C164.274 33.2652 163.959 32.6535 163.33 32.1512C162.701 31.705 161.818 31.4272 160.747 31.4272H158.605V36.8762H160.683C161.818 36.8762 162.698 36.6545 163.327 36.1522C163.956 35.706 164.27 34.985 164.27 34.0955L164.274 34.0985Z" fill="#EFBA06"/>
<path d="M179.624 43.7755L178.426 46.6123H172.383L181.26 27.0947H185.73L194.483 46.6123H188.377L187.306 43.7755H179.624ZM181.196 39.8247H185.857L183.592 33.1524H183.528L181.2 39.8247H181.196Z" fill="#EFBA06"/>
</svg>
